<svg width="9" height="23" viewBox="0 0 9 23" fill="none" xmlns="http://www.w3.org/2000/svg">
<path d="M6.86553 0C6.31114 0 5.77946 0.227112 5.38745 0.631376C4.99543 1.03564 4.7752 1.58394 4.7752 2.15565C4.7752 2.72737 4.99543 3.27567 5.38745 3.67993C5.77946 4.08419 6.31114 4.3113 6.86553 4.3113C7.41992 4.3113 7.95161 4.08419 8.34362 3.67993C8.73563 3.27567 8.95586 2.72737 8.95586 2.15565C8.95586 1.58394 8.73563 1.03564 8.34362 0.631376C7.95161 0.227112 7.41992 0 6.86553 0ZM6.36385 6.85497C4.70553 6.99868 0.17648 10.7208 0.17648 10.7208C-0.102231 10.9363 -0.0186172 10.922 0.204351 11.3244C0.42732 11.7124 0.399449 11.7411 0.664224 11.5543C0.942934 11.3675 1.40281 11.0657 2.16926 10.5771C5.12359 8.62261 2.64307 13.1351 1.37494 20.7374C0.873257 24.5026 4.16204 22.5625 5.01211 21.9876C5.84824 21.4272 8.09186 19.832 8.31483 19.6739C8.62141 19.4584 8.39844 19.2859 8.16154 18.9266C7.99431 18.6823 7.82708 18.8548 7.82708 18.8548C6.92127 19.4727 5.26295 20.7661 5.03998 19.947C4.7752 19.1278 6.47534 13.5088 7.40902 9.64295C7.56231 8.72321 7.98038 6.71126 6.36385 6.85497Z" fill="#216CFF"/>
</svg>
