<svg width="31" height="31" viewBox="0 0 31 31" fill="none" xmlns="http://www.w3.org/2000/svg">
<path d="M19.8442 10.6623C19.8643 10.7241 19.9219 10.7659 19.9869 10.7659H26.556C27.6102 10.7659 28.5445 11.4447 28.8703 12.4473C29.196 13.4499 28.8392 14.5482 27.9863 15.1679L22.6718 19.0291C22.6192 19.0673 22.5972 19.135 22.6173 19.1968L24.6473 25.4445C24.973 26.4471 24.6161 27.5454 23.7633 28.165C22.9104 28.7846 21.7556 28.7846 20.9027 28.165L15.5882 24.3038C15.5356 24.2656 15.4644 24.2656 15.4118 24.3038L10.0973 28.165C9.24444 28.7846 8.08959 28.7846 7.23673 28.165C6.38388 27.5454 6.02701 26.4471 6.35277 25.4445L8.38275 19.1968C8.40284 19.135 8.38084 19.0673 8.32826 19.0291L3.01371 15.1679C2.16085 14.5482 1.80398 13.4499 2.12975 12.4473C2.45551 11.4447 3.3898 10.7659 4.44398 10.7659H11.0131C11.0781 10.7659 11.1357 10.7241 11.1558 10.6623L13.1858 4.41464C13.5115 3.41206 14.4458 2.73325 15.5 2.73325C16.5542 2.73325 17.4885 3.41206 17.8143 4.41464L19.8442 10.6623ZM4.35582 13.3206L11.1007 18.221L8.52435 26.1501C8.50427 26.2119 8.52627 26.2796 8.57884 26.3178C8.63142 26.356 8.70261 26.356 8.75518 26.3178L15.5 21.4174L22.2449 26.3178C22.2974 26.356 22.3686 26.356 22.4212 26.3178C22.4738 26.2796 22.4958 26.2119 22.4757 26.1501L19.8994 18.221L26.6442 13.3206C26.6968 13.2824 26.7188 13.2147 26.6987 13.1529C26.6786 13.0911 26.621 13.0493 26.556 13.0493H18.219L15.6427 5.12023C15.6226 5.05843 15.565 5.01659 15.5 5.01659C15.435 5.01659 15.3774 5.05843 15.3574 5.12023L12.7811 13.0493H4.44398C4.379 13.0493 4.32141 13.0911 4.30132 13.1529C4.28124 13.2147 4.30324 13.2824 4.35582 13.3206Z" fill="black" stroke="#F4F8FF" stroke-width="0.3" stroke-linejoin="round"/>
</svg>
