<svg width="11" height="10" viewBox="0 0 11 10" fill="none" xmlns="http://www.w3.org/2000/svg">
<path d="M6.2291 4.99984L8.27011 3.14437C8.36698 3.05646 8.42147 2.93718 8.42159 2.81275C8.42171 2.68832 8.36745 2.56895 8.27076 2.48089C8.17406 2.39283 8.04285 2.3433 7.90598 2.34319C7.76911 2.34308 7.6378 2.3924 7.54093 2.48031L5.49992 4.33577L3.4589 2.48031C3.36204 2.39225 3.23066 2.34277 3.09367 2.34277C2.95668 2.34277 2.8253 2.39225 2.72843 2.48031C2.63157 2.56837 2.57715 2.6878 2.57715 2.81234C2.57715 2.93687 2.63157 3.05631 2.72843 3.14437L4.76945 4.99984L2.72843 6.85531C2.63157 6.94337 2.57715 7.0628 2.57715 7.18734C2.57715 7.31187 2.63157 7.43131 2.72843 7.51937C2.8253 7.60743 2.95668 7.6569 3.09367 7.6569C3.23066 7.6569 3.36204 7.60743 3.4589 7.51937L5.49992 5.6639L7.54093 7.51937C7.6378 7.60743 7.76918 7.6569 7.90617 7.6569C8.04316 7.6569 8.17454 7.60743 8.2714 7.51937C8.36827 7.43131 8.42269 7.31187 8.42269 7.18734C8.42269 7.0628 8.36827 6.94337 8.2714 6.85531L6.2291 4.99984Z" fill="black"/>
</svg>
