<svg width="22" height="17" viewBox="0 0 22 17" fill="none" xmlns="http://www.w3.org/2000/svg">
<path d="M20.5139 0.311818L20.5138 0.311821C20.2142 0.321124 19.9325 0.451294 19.7272 0.67053L7.26966 13.6527L2.27708 8.44989C2.17312 8.33771 2.04816 8.24734 1.90903 8.18468C1.76884 8.12154 1.61745 8.08797 1.46385 8.08634C1.31024 8.08471 1.15818 8.11506 1.01671 8.17525C0.875266 8.23543 0.747647 8.32404 0.640961 8.43522C0.534303 8.54637 0.450661 8.67787 0.394312 8.8217C0.33797 8.96552 0.309875 9.11918 0.311385 9.27382C0.312894 9.42845 0.343985 9.58153 0.403151 9.72419C0.461887 9.86581 0.547295 9.99473 0.655043 10.1032L6.45864 16.1511L6.45868 16.1512C6.67152 16.3729 6.96295 16.5 7.26966 16.5C7.57637 16.5 7.86779 16.3729 8.08063 16.1512L8.08068 16.1511L21.3493 2.32378C21.5122 2.15807 21.6221 1.94665 21.6665 1.71773C21.7111 1.48805 21.6882 1.24956 21.6002 1.03298C21.5122 0.816294 21.3626 0.63022 21.1689 0.500704L20.9958 0.759499L21.1689 0.500703C20.975 0.371065 20.7466 0.304665 20.5139 0.311818Z" fill="#747474" stroke="#747474" stroke-width="0.6"/>
</svg>
