<svg width="28" height="29" viewBox="0 0 28 29" fill="none" xmlns="http://www.w3.org/2000/svg">
<path d="M15.1977 19.3711C15.1977 19.3195 15.1585 19.2764 15.1072 19.2715C13.5397 19.1214 11.8916 19.2321 10.1581 19.613C8.32149 20.0166 5.98604 21.7993 3.15739 25.3755C2.85863 25.7532 2.35815 25.882 1.92531 25.6958C1.49159 25.5092 1.22428 25.0484 1.27214 24.5596C1.69247 20.266 3.28489 16.6344 6.06144 13.7202C8.58213 11.0746 11.6119 9.60107 15.1059 9.31465C15.1578 9.3104 15.1977 9.26704 15.1977 9.21498V4.22912C15.1977 3.77615 15.4626 3.37086 15.8638 3.20193C16.2643 3.03328 16.7241 3.13222 17.0272 3.45446L26.4295 13.4506C26.8268 13.873 26.8356 14.545 26.4491 14.9785L17.0469 25.524C16.7486 25.8586 16.2844 25.9685 15.877 25.8034C15.4689 25.6381 15.1977 25.2292 15.1977 24.7708V19.3711ZM17.5039 7.13259C17.4758 7.10272 17.4323 7.09303 17.3942 7.10814C17.3561 7.12325 17.331 7.1601 17.331 7.20111V10.3717C17.331 10.9837 16.8553 11.4752 16.2728 11.48C12.8498 11.508 9.97143 12.7671 7.57748 15.2797C6.12717 16.8019 5.0426 18.5493 4.3274 20.5344C4.31167 20.578 4.32805 20.6268 4.36695 20.6521C4.40585 20.6774 4.45705 20.6726 4.49059 20.6405C6.29509 18.9149 8.0365 17.8136 9.71674 17.4443C12.0461 16.9324 14.2888 16.85 16.4362 17.2142C16.9497 17.3012 17.331 17.7623 17.331 18.308V21.6812C17.331 21.7227 17.3567 21.7598 17.3954 21.7746C17.4342 21.7894 17.4781 21.7787 17.5057 21.7477L24.1335 14.314C24.168 14.2754 24.1672 14.2167 24.1317 14.179L17.5039 7.13259Z" fill="black" stroke="white" stroke-width="0.2" stroke-linejoin="round"/>
</svg>
