<svg width="45" height="41" viewBox="0 0 45 41" fill="none" xmlns="http://www.w3.org/2000/svg">
<path d="M20.2578 27.8749L20.2579 27.8749C21.5807 28.4682 23.0574 28.8002 24.6194 28.8002C27.3409 28.8002 29.9514 27.7682 31.8765 25.9306C33.8017 24.093 34.8837 21.6001 34.8837 19.0002C34.8837 16.4003 33.8017 13.9074 31.8765 12.0697C29.9514 10.2321 27.3409 9.20016 24.6194 9.20016C21.8979 9.20016 19.2874 10.2321 17.3623 12.0697C15.4371 13.9073 14.3551 16.4002 14.3551 19.0001C14.3551 19.0001 14.3551 19.0001 14.3551 19.0002H14.4051C14.4014 21.0304 15.0651 23.0105 16.3027 24.6617L20.2578 27.8749ZM20.2578 27.8749C20.0776 27.794 19.8773 27.7618 19.679 27.7821M20.2578 27.8749L19.679 27.7821M19.679 27.7821C19.4807 27.8024 19.2923 27.8744 19.1343 27.9899L19.679 27.7821ZM19.9082 30.0083L19.9297 29.9943L12.5926 29.9212L12.6333 29.9503C12.6333 29.9503 12.6333 29.9503 12.6333 29.9503C12.2418 30.4985 12.1071 30.9775 12.2326 31.3227C12.3564 31.6631 12.7452 31.9013 13.4726 31.9405L13.4727 31.9405C14.125 31.977 15.5414 31.9365 17.4388 31.2501C18.4161 30.8963 19.2513 30.4378 19.9082 30.0083Z" fill="black" stroke="white" stroke-width="0.1"/>
</svg>
