<svg width="32" height="32" viewBox="0 0 32 32" fill="none" xmlns="http://www.w3.org/2000/svg">
<path d="M18.1212 16L24.0587 21.9375C24.3405 22.2188 24.499 22.6005 24.4994 22.9986C24.4997 23.3968 24.3419 23.7788 24.0606 24.0606C23.7793 24.3424 23.3976 24.5009 22.9994 24.5012C22.6013 24.5016 22.2193 24.3438 21.9375 24.0625L16 18.125L10.0625 24.0625C9.7807 24.3443 9.39851 24.5026 8.99999 24.5026C8.60148 24.5026 8.21929 24.3443 7.93749 24.0625C7.6557 23.7807 7.49739 23.3985 7.49739 23C7.49739 22.6014 7.6557 22.2193 7.93749 21.9375L13.875 16L7.93749 10.0625C7.6557 9.78067 7.49739 9.39847 7.49739 8.99996C7.49739 8.60145 7.6557 8.21925 7.93749 7.93746C8.21929 7.65567 8.60148 7.49736 8.99999 7.49736C9.39851 7.49736 9.7807 7.65567 10.0625 7.93746L16 13.875L21.9375 7.93746C22.2193 7.65567 22.6015 7.49736 23 7.49736C23.3985 7.49736 23.7807 7.65567 24.0625 7.93746C24.3443 8.21925 24.5026 8.60145 24.5026 8.99996C24.5026 9.39847 24.3443 9.78067 24.0625 10.0625L18.1212 16Z" fill="#747474"/>
</svg>
