<svg width="19" height="14" viewBox="0 0 19 14" fill="none" xmlns="http://www.w3.org/2000/svg">
<path d="M18.3277 2.61518L18.3275 2.61538L7.33873 13.6042C7.14442 13.7985 6.82925 13.7988 6.63489 13.604L0.395855 7.36472L18.3277 2.61518ZM18.3277 2.61518C18.5216 2.42088 18.5223 2.10625 18.3275 1.91176L18.3277 2.61518ZM6.98713 9.51653L16.108 0.395647L16.1084 0.395235C16.3029 0.201702 16.617 0.201405 16.8114 0.395442L16.8117 0.39566L18.3273 1.91154L6.98713 9.51653ZM6.98713 9.51653L2.61538 5.145C2.61538 5.145 2.61538 5.145 2.61538 5.145C2.42107 4.95069 2.10622 4.95099 1.91196 5.14479L1.91175 5.145L0.395647 6.6611L0.395441 6.66131C0.201818 6.85539 0.201154 7.17024 0.395644 7.36451L6.98713 9.51653Z" fill="#747474" stroke="#747474" stroke-width="0.5"/>
</svg>
