<svg width="29" height="29" viewBox="0 0 29 29" fill="none" xmlns="http://www.w3.org/2000/svg">
<path d="M16.4223 14.5001L21.8032 19.8809C22.0585 20.1359 22.2022 20.4818 22.2025 20.8426C22.2028 21.2035 22.0598 21.5497 21.8049 21.805C21.5499 22.0604 21.204 22.204 20.8432 22.2044C20.4823 22.2047 20.1362 22.0616 19.8808 21.8067L14.4999 16.4259L9.11906 21.8067C8.86368 22.0621 8.51732 22.2056 8.15617 22.2056C7.79501 22.2056 7.44865 22.0621 7.19328 21.8067C6.9379 21.5513 6.79443 21.205 6.79443 20.8438C6.79443 20.4827 6.9379 20.1363 7.19328 19.8809L12.5741 14.5001L7.19328 9.11922C6.9379 8.86385 6.79443 8.51749 6.79443 8.15633C6.79443 7.79518 6.9379 7.44882 7.19328 7.19344C7.44865 6.93807 7.79501 6.7946 8.15617 6.7946C8.51732 6.7946 8.86368 6.93807 9.11906 7.19344L14.4999 12.5743L19.8808 7.19344C20.1362 6.93807 20.4825 6.7946 20.8437 6.7946C21.2048 6.7946 21.5512 6.93807 21.8066 7.19344C22.0619 7.44882 22.2054 7.79518 22.2054 8.15633C22.2054 8.51749 22.0619 8.86385 21.8066 9.11922L16.4223 14.5001Z" fill="white"/>
</svg>
