<svg width="44" height="41" viewBox="0 0 44 41" fill="none" xmlns="http://www.w3.org/2000/svg">
<path d="M8.15 16.5341C8.15 11.9037 11.9037 8.15 16.5341 8.15C18.7876 8.15 20.8329 9.03962 22.3385 10.4842C22.3965 10.5399 22.4882 10.5399 22.5462 10.4842C24.0518 9.03962 26.0971 8.15 28.3506 8.15C32.981 8.15 36.7347 11.9037 36.7347 16.5341C36.7347 20.5914 34.3559 24.3172 31.5566 27.1441C28.7461 29.9824 25.3123 32.1188 22.8091 32.9507C22.571 33.0298 22.3137 33.0298 22.0756 32.9507C19.5724 32.1188 16.1386 29.9824 13.3281 27.1441C10.5288 24.3172 8.15 20.5914 8.15 16.5341ZM22.3887 30.5927C22.4232 30.606 22.4615 30.606 22.496 30.5927C24.5706 29.7978 27.4666 27.969 29.9039 25.5076C32.5207 22.865 34.4088 19.6979 34.4088 16.5341C34.4088 13.1883 31.6964 10.4759 28.3506 10.4759C26.3026 10.4759 24.4916 11.491 23.3932 13.0507C23.1754 13.3601 22.8207 13.5441 22.4423 13.5441C22.064 13.5441 21.7093 13.3601 21.4915 13.0507C20.3931 11.491 18.5821 10.4759 16.5341 10.4759C13.1882 10.4759 10.4759 13.1883 10.4759 16.5341C10.4759 19.6979 12.364 22.865 14.9808 25.5076C17.4181 27.969 20.3141 29.7978 22.3887 30.5927Z" fill="black" stroke="white" stroke-width="0.3" stroke-linecap="round" stroke-linejoin="round"/>
</svg>
