<svg width="25" height="25" viewBox="0 0 25 25" fill="none" xmlns="http://www.w3.org/2000/svg">
<g clip-path="url(#clip0_0_20)">
<path d="M5.20833 18.7499H19.7917V11.4905C19.7917 7.44575 16.5271 4.16659 12.5 4.16659C8.47292 4.16659 5.20833 7.44575 5.20833 11.4905V18.7499ZM12.5 2.08325C17.6771 2.08325 21.875 6.29471 21.875 11.4905V20.8333H3.125V11.4905C3.125 6.29471 7.32292 2.08325 12.5 2.08325ZM9.89583 21.8749H15.1042C15.1042 22.5656 14.8298 23.228 14.3414 23.7163C13.853 24.2047 13.1907 24.4791 12.5 24.4791C11.8093 24.4791 11.147 24.2047 10.6586 23.7163C10.1702 23.228 9.89583 22.5656 9.89583 21.8749Z" fill="black" stroke="white" stroke-width="0.2"/>
</g>
<defs>
<clipPath id="clip0_0_20">
<rect width="25" height="25" fill="white"/>
</clipPath>
</defs>
</svg>
