<svg width="27" height="25" viewBox="0 0 27 25" fill="none" xmlns="http://www.w3.org/2000/svg">
<path d="M20.25 2.08325H6.75C5.85489 2.08325 4.99645 2.41249 4.36351 2.99854C3.73058 3.58459 3.375 4.37945 3.375 5.20825V16.6666C3.375 17.4954 3.73058 18.2902 4.36351 18.8763C4.99645 19.4623 5.85489 19.7916 6.75 19.7916H9.66375L12.7013 22.6145C12.8064 22.711 12.931 22.7874 13.0681 22.8393C13.2052 22.8911 13.3519 22.9174 13.5 22.9166C13.7681 22.9166 14.0275 22.8279 14.2312 22.6666L17.8537 19.7916H20.25C21.1451 19.7916 22.0035 19.4623 22.6365 18.8763C23.2694 18.2902 23.625 17.4954 23.625 16.6666V5.20825C23.625 4.37945 23.2694 3.58459 22.6365 2.99854C22.0035 2.41249 21.1451 2.08325 20.25 2.08325ZM21.375 16.6666C21.375 16.9429 21.2565 17.2078 21.0455 17.4032C20.8345 17.5985 20.5484 17.7083 20.25 17.7083H17.4375C17.1694 17.7082 16.91 17.7969 16.7063 17.9583L13.5562 20.4583L10.9237 18.0103C10.8186 17.9138 10.694 17.8374 10.5569 17.7856C10.4198 17.7337 10.2731 17.7075 10.125 17.7083H6.75C6.45163 17.7083 6.16548 17.5985 5.9545 17.4032C5.74353 17.2078 5.625 16.9429 5.625 16.6666V5.20825C5.625 4.93198 5.74353 4.66703 5.9545 4.47168C6.16548 4.27633 6.45163 4.16659 6.75 4.16659H20.25C20.5484 4.16659 20.8345 4.27633 21.0455 4.47168C21.2565 4.66703 21.375 4.93198 21.375 5.20825V16.6666Z" fill="black" stroke="white" stroke-width="0.6"/>
</svg>
